# xmcd
#
# Track frame offsets:
#	150
#	14113
#	30834
#	48485
#	66569
#	85408
#	96713
#	112392
#	127506
#	148029
#	162745
#	181802
#	199132
#	216851
#	234961
#
# Disc length: 3387 seconds
#
# Revision: 2
# Processed by: cddbd v1.5.2PL0 Copyright (c) Steve Scherf et al.
# Submitted via: EasyCDDAExtractor 16.1.0.1
#
DISCID=e00d390f
DTITLE=Евгений Росс  - Запоздалый снег
DYEAR=2009
DGENRE=Chanson
TTITLE0=Белый снег за окном 
TTITLE1=Березы России 
TTITLE2=Напоила ночь 
TTITLE3=Ностальгия 
TTITLE4=Запоздалый снег 
TTITLE5=Милая, единственная, нежная 
TTITLE6=Прости мою любовь 
TTITLE7=Ты меня не тревожь 
TTITLE8=Забери эту ночь 
TTITLE9=Шум дождя 
TTITLE10=Родина моя 
TTITLE11=Белый снег за окном relax 
TTITLE12=Напоила ночь 
TTITLE13=Ностальгия 
TTITLE14=Родина моя 
EXTD=
EXTT0=
EXTT1=
EXTT2=
EXTT3=
EXTT4=
EXTT5=
EXTT6=
EXTT7=
EXTT8=
EXTT9=
EXTT10=
EXTT11=
EXTT12=
EXTT13=
EXTT14=
PLAYORDER=
